<?xml version="1.0" encoding="utf-8"?>
<!-- Uploaded to: SVG Repo, www.svgrepo.com, Generator: SVG Repo Mixer Tools -->
<svg width="800px" height="800px" viewBox="-159.08 0 469.717 469.717" xmlns="http://www.w3.org/2000/svg"><defs><style>.a{fill:#ffffff;}.b{fill:#211715;}.c{fill:none;}.d{fill:#7a7473;}.e{fill:#bdbdbd;}.f{fill:#6dbf6b;}.g{fill:#79c6e0;}</style></defs><path class="a" d="M108.987,51.326a4.547,4.547,0,0,1,3.641-1.065,4.3,4.3,0,0,1,3.09,2.054,6.071,6.071,0,0,1,.636,2.444A18.215,18.215,0,0,1,114.5,64.41a11.574,11.574,0,0,1-2.992,3.927,3.626,3.626,0,0,1-4.481.415,27.214,27.214,0,0,1-1.184,4.278c-.962,2.571-6,10.992-12.554,14.985v.067a57.216,57.216,0,0,0,.762,8.3c.433,2.473.3,4.684,3.737,5.926.227.082,4.042,1.845,4.557,2.071,0,0-3.319,15.563-24.949,15.563-22.37,0-21.717-16.777-21.717-16.777.43-.18,2.12-.77,2.35-.86,3.44-1.24,3.3-3.45,3.73-5.92a65.678,65.678,0,0,0,.76-8.346,26.754,26.754,0,0,1-7.1-6.069A30.84,30.84,0,0,1,49.2,69.43c-1.88.755-3.284-.216-4.384-1.093a11.587,11.587,0,0,1-2.992-3.927,18.2,18.2,0,0,1-1.856-9.651,6.054,6.054,0,0,1,.636-2.444A4.3,4.3,0,0,1,43.7,50.261a4.551,4.551,0,0,1,3.642,1.065S44.5,23.938,76.949,23.938,108.987,51.326,108.987,51.326Z"/><path class="b" d="M56.208,105.09a28.7,28.7,0,0,0,4.095-1.651,6.473,6.473,0,0,0,2.988-4.169,58.681,58.681,0,0,0,1.225-11.239,2,2,0,0,0-4,0c-.06,1.838-.179,3.674-.372,5.5-.146,1.385-.335,2.688-.611,4.191a8.685,8.685,0,0,1-.2.873c-.037.128-.082.253-.123.379-.143.441.2-.284-.056.1-.089.134-.163.278-.252.413.157-.235.072-.081-.061.049-.046.044-.411.372-.272.265.17-.133-.245.156-.285.18a23.784,23.784,0,0,1-3.139,1.247,2.064,2.064,0,0,0-1.4,2.46,2.013,2.013,0,0,0,2.46,1.4Z"/><path class="b" d="M91.286,88.082a60.068,60.068,0,0,0,.7,8.046c.278,1.8.405,3.786,1.439,5.346a6.476,6.476,0,0,0,2.523,2.209c.341.169.695.315,1.049.455.782.31-.277-.155-.082-.046.214.122.461.207.685.309,1.244.564,2.479,1.148,3.727,1.7a2.063,2.063,0,0,0,2.737-.717,2.015,2.015,0,0,0-.718-2.736c-1.135-.5-2.259-1.034-3.389-1.548-.538-.246-1.078-.482-1.621-.716A5.843,5.843,0,0,1,97.3,99.84c-.474-.324.167.2-.209-.18-.087-.084-.17-.172-.25-.264.112.154.127.174.048.059-.111-.165-.2-.336-.3-.51.164.3.007.022-.047-.142a8.12,8.12,0,0,1-.264-1.076c-.156-.839-.273-1.688-.406-2.53a52.139,52.139,0,0,1-.583-7.115c-.049-2.57-4.049-2.579-4,0Z"/><path class="a" d="M26.82,115.284a37.886,37.886,0,0,0-3.134,2.794c-3.152,4.144-3.85,4.955-5.66,9.141C15.073,134.048,7.547,154.55,3.938,163.9c-3.428,8.885-2.175,17.679,2.6,23.813s18.478,10.5,24.935,12.71q2.275.779,4.444,1.483c-.109,1.829-.219,3.329-.318,4.275-.153,1.465-1.682,30.515-1.648,28.362,17.8,0,76.289.065,88.824.064-.222-4.434-.927-23.81-1.12-27.931a8.422,8.422,0,0,0-.035-.864c-.13-1.249-.29-3.445-.457-6.072,1.338-.25,2.592-.5,3.736-.757,5.439-1.2,16.123-3.954,20.759-7.819,4.537-3.783,4.389-12.676,2.766-21.982-1.708-9.8-7.573-36.281-9.152-41.917-1.03-3.679-3.074-7.766-5.6-9.877a16.8,16.8,0,0,0-2.274-1.56l-.447-.243-.038-.03a32.175,32.175,0,0,0-4.751-2.695,248.145,248.145,0,0,0-25.893-12.6,24.615,24.615,0,0,0-5.011-6.773,49.641,49.641,0,0,1-14.32,9.98c-.3.134-.627.3-.723.61H77.645c-.095-.311-.426-.476-.722-.61a49.641,49.641,0,0,1-14.32-9.98,24.85,24.85,0,0,0-5.2,7.158,252.846,252.846,0,0,0-25.851,12.021,28.514,28.514,0,0,0-4.493,2.505"/><path class="c" d="M94.74,111.828a56.726,56.726,0,0,1-14.283,2.014,61.917,61.917,0,0,1-16.228-2.484"/><path class="b" d="M56.3,98.952c-5.259,2.181-10.5,4.406-15.648,6.845q-3.635,1.722-7.2,3.586c-2.446,1.28-5.207,2.39-7.409,4.061a2.064,2.064,0,0,0-.717,2.736,2.013,2.013,0,0,0,2.736.717,49.7,49.7,0,0,1,7.024-3.858q3.566-1.877,7.2-3.608c4.955-2.361,10-4.519,15.07-6.622a2.066,2.066,0,0,0,1.4-2.46,2.012,2.012,0,0,0-2.46-1.4Z"/><path class="b" d="M30.474,145.306c1.21,9.616,2.44,19.23,3.554,28.858.236,2.041.517,4.086.562,6.143.064,2.971-.028,5.949-.117,8.919-.31,10.281-1.108,20.54-1.676,30.81-.268,4.846-.363,9.742-.837,14.574a2.014,2.014,0,0,0,2,2,2.043,2.043,0,0,0,2-2c.4-4.1.487-8.243.714-12.351.28-5.047.532-10.1.857-15.14s.666-10.063.849-15.11a107.828,107.828,0,0,0-.114-15.752c-1.143-10.33-2.494-20.64-3.792-30.951a2.064,2.064,0,0,0-2-2,2.012,2.012,0,0,0-2,2Z"/><path class="c" d="M30.315,128.194c.627,4.973,1.388,10.984,2.159,17.112"/><path class="b" d="M124.746,234.829c-.268-2.683-.251-5.42-.352-8.112q-.252-6.711-.487-13.421c-.279-7.688-.881-15.349-1.3-23.031q-.193-3.538-.375-7.08c-.071-1.387-.248-2.818-.186-4.206.1-2.221.478-4.458.746-6.662,1.014-8.341,2.106-16.671,3.193-25,.875-6.7,1.814-13.4,2.624-20.116a2.012,2.012,0,0,0-2-2,2.047,2.047,0,0,0-2,2c-1.717,14.235-3.751,28.432-5.515,42.662-.336,2.711-.683,5.423-.957,8.141a57.175,57.175,0,0,0,.277,8.664c.421,7.97,1.1,15.933,1.394,23.907q.27,7.291.529,14.585c.119,3.209.09,6.473.41,9.671a2.056,2.056,0,0,0,2,2,2.014,2.014,0,0,0,2-2Z"/><path class="a" d="M103.187,420.73a30.534,30.534,0,0,0,3.458,13.93l-9.585,2.5-12.593-2.931.085-12.459Z"/><path class="a" d="M54.408,420.73a30.547,30.547,0,0,1-3.458,13.93l9.11,2.611,13.068-3.042-.085-12.459Z"/><path class="b" d="M52.162,420.73a28.709,28.709,0,0,1-3.184,12.92,2.047,2.047,0,0,0,.717,2.737,2.022,2.022,0,0,0,2.737-.718,33.162,33.162,0,0,0,3.73-14.939,2,2,0,0,0-4,0Z"/><path class="b" d="M70.8,421.77l.086,12.459a2,2,0,0,0,4,0L74.8,421.77a2,2,0,0,0-4,0Z"/><path class="b" d="M101.187,420.73a33.163,33.163,0,0,0,3.731,14.939,2,2,0,1,0,3.454-2.019,28.694,28.694,0,0,1-3.185-12.92,2,2,0,0,0-4,0Z"/><path class="b" d="M82.552,421.77l-.085,12.459a2,2,0,1,0,4,0l.085-12.459a2,2,0,0,0-4,0Z"/><path class="d" d="M31.558,463.251c-.116-.152-.226-.308-.329-.47a8.806,8.806,0,0,1-.583-7.38,24.178,24.178,0,0,1,3.787-6.607q5.483-7.488,11.588-14.49c1.586-1.82,3.38-3.717,5.752-4.165a3.569,3.569,0,0,0,1.774,3.743,8.364,8.364,0,0,0,4.278.965,23.739,23.739,0,0,0,16.619-6.614c-.027,5,.023,6.664,0,11.665a10.507,10.507,0,0,1-.438,3.607c-1.028,2.779-4.076,4.118-6.522,5.792-6.363,4.354-9.714,12.3-16.382,16.171a17.217,17.217,0,0,1-15.914.57A10.037,10.037,0,0,1,31.558,463.251Z"/><path class="e" d="M78.458,426.047c9.393,1.952,31.386,2.186,36.319.541.445-7.365,1.259-80.473,3.245-113.47,1.672-27.78,2.989-61.11,4.62-78.508-19.195-.292-69.636-.6-88.786-.915,1.651,17.269,3.488,51.4,5.175,79.423,1.986,33,2.8,106.105,3.245,113.47,4.933,1.645,24.116,1.761,35.557-.425"/><path class="b" d="M33.285,462.241c-1.765-2.411-1.3-5.448-.01-7.975A55.46,55.46,0,0,1,39.013,446q3.174-4.14,6.56-8.113c1.828-2.153,3.806-5.161,6.732-5.814l-2.46-2.46a5.829,5.829,0,0,0,3.883,6.568c2.632,1.031,5.78.76,8.511.323a25.442,25.442,0,0,0,13.619-6.851l-3.414-1.415c-.022,4.261.165,8.554-.021,12.811-.093,2.138-1.178,3.407-2.892,4.565a57.267,57.267,0,0,0-5.2,3.609c-6.047,5.129-9.633,13.856-17.855,16-4.467,1.165-10.438.409-13.5-3.383a2.014,2.014,0,0,0-2.829,0,2.047,2.047,0,0,0,0,2.828c3.11,3.849,8.921,5.341,13.677,5.006a20.357,20.357,0,0,0,12.98-6.144c3.2-3.157,5.678-6.959,8.877-10.119a30.986,30.986,0,0,1,5.263-3.946,11.809,11.809,0,0,0,4.66-4.621c1.259-2.721.855-6.042.848-8.965-.006-2.548-.017-5.095,0-7.643a2.022,2.022,0,0,0-3.414-1.414,21.425,21.425,0,0,1-9.4,5.293,20.486,20.486,0,0,1-6.213.725c-1.137-.046-4.061-.4-3.718-2.166a2.027,2.027,0,0,0-2.46-2.46c-3.579.8-5.931,3.833-8.189,6.48q-4.027,4.721-7.783,9.663c-4.039,5.3-10.39,13.142-5.439,19.906a2.059,2.059,0,0,0,2.736.718A2.016,2.016,0,0,0,33.285,462.241Z"/><path class="d" d="M125.792,463.251c.116-.152.225-.308.329-.47a8.81,8.81,0,0,0,.582-7.38,24.152,24.152,0,0,0-3.787-6.607q-5.483-7.488-11.587-14.49c-1.587-1.82-3.38-3.717-5.753-4.165a3.57,3.57,0,0,1-1.773,3.743,8.369,8.369,0,0,1-4.278.965,23.741,23.741,0,0,1-16.62-6.614c.028,5-.022,6.664,0,11.665a10.483,10.483,0,0,0,.439,3.607c1.028,2.779,4.076,4.118,6.521,5.792,6.363,4.354,9.715,12.3,16.382,16.171a17.218,17.218,0,0,0,15.914.57A10.049,10.049,0,0,0,125.792,463.251Z"/><path class="b" d="M31.856,234.829c1.451,15.237,2.307,30.536,3.235,45.812.914,15.047,1.935,30.095,2.574,45.156.552,13.006.91,26.021,1.229,39.034q.467,19.041.818,38.086c.149,7.548.212,15.106.515,22.65.014.34.029.681.049,1.021a2.078,2.078,0,0,0,1.468,1.929,28.76,28.76,0,0,0,6.56,1.006c3.1.242,6.206.307,9.31.289a115.875,115.875,0,0,0,20.751-1.721c2.526-.476,1.456-4.332-1.064-3.857a110,110,0,0,1-19.687,1.578c-3.012.017-6.028-.045-9.032-.268a22.922,22.922,0,0,1-5.774-.884l1.468,1.928c-.389-6.554-.355-13.152-.486-19.714q-.367-18.477-.774-36.954c-.31-13.237-.658-26.474-1.172-39.705-.554-14.276-1.49-28.533-2.344-42.793-.965-16.1-1.879-32.211-3.255-48.281q-.184-2.157-.389-4.312a2.054,2.054,0,0,0-2-2,2.014,2.014,0,0,0-2,2Z"/><path class="b" d="M127.519,464.26c4.949-6.763-1.4-14.61-5.44-19.906q-3.764-4.933-7.782-9.663c-2.258-2.647-4.611-5.682-8.189-6.48a2.027,2.027,0,0,0-2.46,2.46c.342,1.767-2.586,2.12-3.719,2.166a20.489,20.489,0,0,1-6.213-.725,21.431,21.431,0,0,1-9.4-5.293,2.022,2.022,0,0,0-3.414,1.414c.012,2.269.006,4.537,0,6.806a48.053,48.053,0,0,0,.188,7.675c.812,5.083,5.969,6.587,9.377,9.571,3.39,2.968,5.9,6.763,8.939,10.058,3.234,3.5,7.2,6.272,11.984,7.069,5.372.9,12.207-.283,15.814-4.747a2.059,2.059,0,0,0,0-2.828,2.014,2.014,0,0,0-2.829,0c-2.681,3.319-7.738,4.319-11.787,3.738-4.286-.614-7.624-3.079-10.478-6.195-2.744-3-5.056-6.374-8-9.183a30.287,30.287,0,0,0-4.906-3.7c-1.437-.9-3.228-1.881-3.929-3.522a11.054,11.054,0,0,1-.371-4.221q0-1.774,0-3.549c.007-2.323.014-4.646,0-6.97l-3.414,1.415a25.448,25.448,0,0,0,13.62,6.851c2.665.427,5.737.7,8.324-.252a5.867,5.867,0,0,0,4.07-6.639l-2.461,2.46c2.863.638,4.786,3.527,6.579,5.633q3.457,4.063,6.713,8.294a57.583,57.583,0,0,1,5.643,8.082c1.343,2.572,1.9,5.682.086,8.164a2.015,2.015,0,0,0,.717,2.737A2.046,2.046,0,0,0,127.519,464.26Z"/><path class="b" d="M120.684,234.162c-1.441,15.164-2.061,30.414-2.85,45.622-.784,15.106-1.766,30.207-2.417,45.32-.563,13.072-.924,26.153-1.246,39.233q-.473,19.157-.825,38.316c-.151,7.636-.214,15.282-.521,22.914-.014.34-.028.681-.048,1.021l1.468-1.928a12.833,12.833,0,0,1-1.908.428c-.631.1-1.357.18-2.307.261-2.357.2-4.725.282-7.09.317A164.861,164.861,0,0,1,86.4,425.1a64.446,64.446,0,0,1-7.407-.986c-2.513-.514-3.588,3.341-1.063,3.857a96.588,96.588,0,0,0,15.388,1.558,138.519,138.519,0,0,0,16.109-.135,25.715,25.715,0,0,0,5.884-.881,2.076,2.076,0,0,0,1.469-1.929c.393-6.636.358-13.317.491-19.962q.369-18.6.78-37.2c.313-13.315.665-26.631,1.189-39.94.564-14.34,1.5-28.664,2.249-43,.834-16.034,1.517-32.092,2.825-48.1q.174-2.117.373-4.233a2.016,2.016,0,0,0-2-2,2.043,2.043,0,0,0-2,2Z"/><path class="b" d="M76.675,265.47c-.444,4.851-.392,9.769-.432,14.635-.059,7.289-.032,14.579.01,21.868.059,10.326.177,20.65.162,30.976q-.024,16.989-.066,33.979-.035,19.2-.038,38.407,0,6.947.033,13.892c.012,2.194-.077,4.427.089,6.616a2.308,2.308,0,0,0,1.016,1.931,2.011,2.011,0,0,0,2.736-.718,2.05,2.05,0,0,0-.717-2.736l0,0,.717.718c.179.332.252,1.395.238.561-.005-.35-.02-.7-.026-1.051-.023-1.234-.032-2.468-.041-3.7-.03-4.269-.036-8.539-.04-12.808q-.021-18.745.029-37.492.032-17.52.068-35.039c.016-9.554-.061-19.107-.127-28.662-.09-12.965-.415-26,.229-38.956.04-.807.088-1.614.162-2.418a2.016,2.016,0,0,0-2-2,2.041,2.041,0,0,0-2,2Z"/><path class="b" d="M34.706,236.545q16.857,0,33.712.022,19.74.018,39.481.035,7.087.006,14.176.008c2.573,0,2.578-4,0-4q-15.2,0-30.4-.022-20.2-.018-40.412-.035-8.28-.006-16.561-.008c-2.573,0-2.578,4,0,4Z"/><path class="c" d="M120.253,209.033c-18.321,0-70.29.065-83.967.065"/><path class="f" d="M74.164,115.4,84.632,113q.153-.753.3-1.5.168-.86.344-1.72c-.982-.964-1.947-1.908-2.759-2.707-2.174,0-4.908-.01-7.159-.013-.8.788-1.75,1.717-2.721,2.67.379,1.565.666,3.025,1.26,4.839C73.988,114.84,74.078,115.121,74.164,115.4Z"/><path class="b" d="M83.63,115.479c-3.012,0-6.023-.066-9.034-.067a2,2,0,0,0,0,4c3.011,0,6.022.066,9.034.067a2,2,0,0,0,0-4Z"/><path class="b" d="M82.516,105.061c-2.386,0-4.773,0-7.16-.01a2,2,0,0,0,0,4c2.387.011,4.774.01,7.16.01a2,2,0,0,0,0-4Z"/><path class="b" d="M87.026,128.611c-.4-3.315-.807-6.63-1.188-9.947a5.644,5.644,0,0,1,.07-2.233c.5-2.027.884-4.073,1.3-6.118a2.05,2.05,0,0,0-1.4-2.46,2.019,2.019,0,0,0-2.46,1.4c-.413,2.044-.8,4.091-1.3,6.118a8.562,8.562,0,0,0-.23,3.155c.385,3.364.8,6.726,1.2,10.088a2.063,2.063,0,0,0,2,2,2.012,2.012,0,0,0,2-2Z"/><path class="b" d="M70.708,110.253c.428,1.787.857,3.556,1.411,5.309a6.683,6.683,0,0,1,.387,3,2.23,2.23,0,0,1-.029.223l-.12.862q-.153,1.092-.312,2.185-.422,2.912-.857,5.821a2.065,2.065,0,0,0,1.4,2.46,2.015,2.015,0,0,0,2.46-1.4c.5-3.382,1.025-6.763,1.461-10.154a8.683,8.683,0,0,0-.384-3.59c-.564-1.923-1.09-3.83-1.557-5.779-.6-2.5-4.458-1.443-3.857,1.063Z"/><path class="a" d="M90.638,115.22c4.05-5.523,6.213-9.462,9.61-14.991a24.5,24.5,0,0,0-4.991-6.742,49.641,49.641,0,0,1-14.32,9.98c-.3.134-.627.3-.723.61a1.15,1.15,0,0,0,.166.808C80.565,105.27,89.285,113.553,90.638,115.22Z"/><path class="a" d="M67.222,115.22c-4.05-5.523-6.213-9.462-9.61-14.991A24.478,24.478,0,0,1,62.6,93.487a49.641,49.641,0,0,0,14.32,9.98c.3.134.627.3.722.61a1.145,1.145,0,0,1-.165.808C77.294,105.27,68.575,113.553,67.222,115.22Z"/><path class="b" d="M92.365,116.229c2.754-3.769,5.209-7.719,7.619-11.713.59-.978,1.21-1.943,1.78-2.934.822-1.428.194-2.476-.563-3.762a25.856,25.856,0,0,0-4.529-5.748,2.037,2.037,0,0,0-2.829,0,46.993,46.993,0,0,1-8.149,6.533,48.08,48.08,0,0,1-4.486,2.528c-1.566.774-3.426,1.594-2.943,3.748.313,1.4,1.606,2.384,2.579,3.344,1.5,1.479,3.007,2.946,4.505,4.426a55.163,55.163,0,0,1,3.875,3.983,2.015,2.015,0,0,0,2.828,0,2.045,2.045,0,0,0,0-2.829,76.239,76.239,0,0,0-5.567-5.647c-1.046-1.027-2.1-2.051-3.137-3.082-.362-.358-.724-.715-1.078-1.08-.1-.107-.2-.226-.311-.327-.313-.287.266.267.255.408l-.273,1.009q-.447.371,0,.108l.32-.147c.375-.177.75-.355,1.121-.54q.976-.486,1.928-1.019,2.043-1.14,3.974-2.47A51.912,51.912,0,0,0,96.672,94.9H93.843a23.534,23.534,0,0,1,4.678,6.338V99.22c-3.108,5.067-6.1,10.185-9.61,14.99a2.014,2.014,0,0,0,.717,2.736A2.046,2.046,0,0,0,92.365,116.229Z"/><path class="b" d="M68.949,114.21c-3.511-4.8-6.5-9.923-9.61-14.99v2.019A23.534,23.534,0,0,1,64.017,94.9H61.188a51.723,51.723,0,0,0,7.383,6.117q1.852,1.274,3.813,2.38.953.537,1.928,1.029.558.281,1.122.545.239.112.479.222.453.263.005-.108l-.273-1.009c-.01-.136.6-.711.278-.432-.106.091-.2.212-.3.313-.344.357-.7.706-1.051,1.056-1.062,1.052-2.133,2.1-3.2,3.144a76.239,76.239,0,0,0-5.567,5.647,2.058,2.058,0,0,0,0,2.829,2.015,2.015,0,0,0,2.828,0,107.87,107.87,0,0,1,7.817-7.855,16.327,16.327,0,0,0,2.744-2.867,2.886,2.886,0,0,0-1.265-4.172c-1.509-.772-3.03-1.485-4.491-2.352a47.307,47.307,0,0,1-9.424-7.316,2.038,2.038,0,0,0-2.829,0,25.78,25.78,0,0,0-4.438,5.593c-.722,1.21-1.52,2.355-.759,3.746.579,1.058,1.262,2.072,1.885,3.105,2.41,3.994,4.865,7.944,7.619,11.713a2.059,2.059,0,0,0,2.737.717A2.015,2.015,0,0,0,68.949,114.21Z"/><path class="b" d="M100.346,102.44c5.181,2.154,10.263,4.534,15.259,7.087,2.354,1.2,4.689,2.44,7.015,3.693,2.412,1.3,5.1,2.4,7.282,4.066a2.012,2.012,0,0,0,2.737-.718,2.05,2.05,0,0,0-.718-2.736c-2.185-1.664-4.869-2.766-7.282-4.066-2.451-1.32-4.912-2.623-7.393-3.886q-7.776-3.958-15.837-7.3a2.012,2.012,0,0,0-2.46,1.4,2.051,2.051,0,0,0,1.4,2.46Z"/><path class="a" d="M44.559,169.307c-3.578-6.759-13.259-26.438-17.549-34.588,1.682-.885,7.043-3.465,9.087-4.316"/><path class="b" d="M46.286,168.3c-4.829-9.136-9.32-18.452-13.993-27.669-1.173-2.312-2.349-4.623-3.556-6.918l-.718,2.736c1.4-.733,2.831-1.417,4.258-2.1q1.251-.6,2.508-1.181c.351-.162.7-.324,1.055-.482.194-.087.387-.174.581-.259.047-.021.495-.215.208-.094a2.068,2.068,0,0,0,1.4-2.46,2.013,2.013,0,0,0-2.461-1.4c-3.243,1.366-6.446,2.888-9.564,4.518a2.034,2.034,0,0,0-.718,2.736c4.935,9.388,9.571,18.933,14.364,28.393,1.05,2.072,2.1,4.142,3.186,6.195,1.2,2.277,4.657.258,3.453-2.019Z"/><path class="g" d="M56.374,218.153C50.3,191.779,40.92,151.52,34.694,124.482c18.747-4.317,55.1-12.67,67.612-15.55l.006,0c7.931,34.168,14.746,64.746,21.354,93.436-13.514,3.112-53.917,12.7-67.289,15.783Z"/><path class="b" d="M58.3,217.621Q49.767,180.556,41.14,143.51q-2.264-9.778-4.518-19.559l-1.4,2.46q28.206-6.5,56.415-12.974l11.2-2.577-1.541-.2.005,0-.919-1.2c5.734,24.705,11.313,49.446,16.946,74.174q2.195,9.633,4.408,19.261l1.4-2.46c-18.389,4.237-36.741,8.633-55.112,12.944q-6.087,1.428-12.177,2.84l1.541.2h0c-2.18-1.384-4.189,2.076-2.019,3.454.865.549,1.994.1,2.908-.112l2.546-.591q2.94-.685,5.881-1.375,7.1-1.663,14.2-3.338,15.386-3.623,30.771-7.244,6.26-1.468,12.523-2.921a2.033,2.033,0,0,0,1.4-2.46c-5.778-25.093-11.411-50.218-17.172-75.315q-1.14-4.965-2.286-9.931-.582-2.521-1.166-5.042c-.335-1.447-.373-4.064-2.132-4.548a5.447,5.447,0,0,0-2.493.329l-2.243.516-5.339,1.229-27.706,6.37q-15.448,3.552-30.9,7.107a2.034,2.034,0,0,0-1.4,2.46q8.575,37.238,17.242,74.454,2.225,9.607,4.439,19.217C55.023,221.192,58.881,220.131,58.3,217.621Z"/><path class="a" d="M110.022,195.345h0c-4.677-20.309-11.9-51.309-16.695-72.129"/><path class="b" d="M111.031,193.618h0l.919,1.2q-6.582-28.578-13.233-57.139-1.734-7.494-3.462-14.99c-.577-2.507-4.435-1.446-3.857,1.064q6.741,29.272,13.554,58.528l1.755,7.591.861,3.735c.271,1.174.337,2.767,1.445,3.471,2.18,1.384,4.189-2.077,2.019-3.454Z"/><path class="a" d="M78.522,180.792c-1.346-.372-2.664-.274-3.8-1.051a12.96,12.96,0,0,1-2.927-3.094,13.938,13.938,0,0,0-6.468-5.068c-2.289-.791-5.194-.735-7.626-.878-1.89-.111-6.417.083-6.928,2.59-.768,3.769,2.354,4.649,4.576,5.448"/><path class="b" d="M79.054,178.863c-.837-.205-1.723-.25-2.546-.5a4.514,4.514,0,0,1-1.954-1.454c-1.194-1.311-2.123-2.815-3.43-4.032a15.27,15.27,0,0,0-9.761-3.994c-4.664-.339-13.607-.831-12.633,6.333.441,3.242,3.36,4.48,6.091,5.454,2.429.867,3.474-3,1.063-3.857a8.2,8.2,0,0,1-2.714-1.26,1.722,1.722,0,0,1-.312-2.025c1.356-1.293,4.639-.827,6.435-.751a19.95,19.95,0,0,1,5.322.673,10.6,10.6,0,0,1,4.247,2.811c1.348,1.385,2.307,3.108,3.778,4.378,1.653,1.427,3.321,1.586,5.35,2.083,2.5.613,3.567-3.243,1.064-3.857Z"/><path class="a" d="M79.317,181.176c-.133-1.071-.227-1.888-.268-2.345,6.519-.956,40.6-5.822,46.715-7.228L133.97,196.6c-3.4,1.062-6.723,1.871-9.072,2.39-12.538,2.775-38.295,5.511-42.2,5.8C82.364,203.485,80.125,187.669,79.317,181.176Z"/><path class="b" d="M125.233,169.674c-5.491,1.249-11.14,1.947-16.7,2.8q-11.09,1.7-22.195,3.294-3.91.568-7.819,1.136a1.992,1.992,0,0,0-1.469,1.928c.695,7.656,1.974,15.309,3.125,22.907.18,1.189.309,2.412.592,3.583a2.013,2.013,0,0,0,1.929,1.468c8.266-.627,16.524-1.746,24.733-2.872,10.186-1.4,20.506-2.925,30.212-6.447,5-1.812,10.3-4.044,12.433-9.278,2.4-5.889,1.383-13.024.355-19.095-1.576-9.308-3.7-18.543-5.763-27.752-.987-4.406-1.969-8.819-3.09-13.194-1.426-5.567-3.991-11.1-9.169-14.045-2.241-1.275-4.259,2.18-2.019,3.453a12.089,12.089,0,0,1,4.819,5.013,26.464,26.464,0,0,1,2.436,6.346c.907,3.5,1.7,7.027,2.5,10.551,2.083,9.171,4.114,18.364,5.866,27.605,1,5.288,1.991,10.868,1.222,16.252-.324,2.271-1.022,4.662-2.778,6.244a20.192,20.192,0,0,1-5.887,3.28c-9.151,3.739-19.114,5.331-28.842,6.738-8.962,1.3-18,2.516-27.031,3.2l1.928,1.469c-.959-3.961-1.275-8.174-1.841-12.2-.625-4.452-1.326-8.74-1.733-13.223l-1.468,1.929c13.04-1.912,26.1-3.736,39.1-5.86,2.541-.414,5.1-.8,7.613-1.368s1.447-4.428-1.063-3.858Z"/><path class="a" d="M104.972,195.788c-1.216-.845-2.619-1.808-3.972-2.732l1.468-.657c2.386.007,5.653.246,6.221-3.6.378-2.557-3.853-4.3-5.686-4.845-2.358-.7-5.1-1.756-7.544-1.793a14.08,14.08,0,0,0-7.886,2.586,13.124,13.124,0,0,1-3.844,1.93c-1.344.347-2.562-.2-3.968-.31l-2.738-.432-4.809,17.947a9.3,9.3,0,0,1,1.29,1.35,44.6,44.6,0,0,1,2.993,5.7c1.64,3.112,3.539,4.622,6.414,6.635a23.165,23.165,0,0,0,5.2,2.743c1.9.52,4.372-2.126,5.52-2.959.282-.205,2.586.772,4.33-.5.7-.513,1.115-2.546,2.093-3.474,1.1-1.04,2.3-.88,3.665-1.332,1.351-.446,2.428-3.62,1.8-4.705,5.984,2.4,6.786-6.183,2.509-9.394C107.456,197.524,106.33,196.73,104.972,195.788Z"/><path class="b" d="M79.761,188.37c.932.1,1.842.385,2.784.417a7.078,7.078,0,0,0,2.929-.6c1.759-.717,3.222-1.908,4.905-2.761a10.961,10.961,0,0,1,5.08-1.259,20.066,20.066,0,0,1,5.6,1.282,21.915,21.915,0,0,1,3.575,1.3c.682.354,2.033,1.023,2.111,1.844a1.911,1.911,0,0,1-1.13,1.563,8.915,8.915,0,0,1-3.145.244c-2.574-.013-2.577,3.987,0,4,2.338.012,4.9-.033,6.632-1.856a5.334,5.334,0,0,0-.094-7.621c-2.022-1.889-4.73-2.655-7.3-3.464-3.639-1.147-7.224-1.8-10.933-.518a28.436,28.436,0,0,0-5.3,2.781,5.907,5.907,0,0,1-2.73,1.068,23.511,23.511,0,0,1-2.979-.419,2.013,2.013,0,0,0-2,2,2.047,2.047,0,0,0,2,2Z"/><path class="b" d="M95.461,191.709q3.168,2.131,6.314,4.3,1.635,1.122,3.26,2.257c.388.272.776.544,1.162.82.153.109.306.218.457.329.314.231.114.072.251.192a5.107,5.107,0,0,1,1.464,2.1,5.981,5.981,0,0,1,.338,2.411,5,5,0,0,1-.142.628c-.012.046-.238.574-.1.285-.042.086-.347.553-.269.448.146-.2-.506.384-.137.116a.778.778,0,0,1-.52.172,3.629,3.629,0,0,1-1.5-.343c-1.8-.677-2.92,1.524-2.259,2.938-.116-.249-.058-.165-.089.058a4.151,4.151,0,0,1-.216.851,1.946,1.946,0,0,1-.663.967c-.731.322-1.618.305-2.375.6a5.249,5.249,0,0,0-2.411,1.875c-.721,1.018-.842,2.694-2.134,2.812a13.617,13.617,0,0,1-1.913-.175,2.937,2.937,0,0,0-2.114.867c-.8.648-2.112,2.171-3.221,2.174a3.652,3.652,0,0,1-1.3-.523c-.769-.382-1.519-.8-2.251-1.251a17.847,17.847,0,0,1-6.955-6.833,39.184,39.184,0,0,0-2.915-5.554,16.948,16.948,0,0,0-5.346-4.394c-2.237-1.282-4.255,2.173-2.019,3.454a11.758,11.758,0,0,1,4.684,4.154c1.056,1.849,1.756,3.882,2.9,5.683,2.094,3.3,5.429,5.754,8.809,7.63,1.607.892,3.431,1.921,5.327,1.517,1.838-.391,3.317-1.718,4.714-2.892.97-.816-.683.071-.649-.076,0-.008,1.2.169,1.3.179a6.381,6.381,0,0,0,3.11-.418,4.187,4.187,0,0,0,2.117-1.83,11.119,11.119,0,0,1,1.221-2.384c.632-.633,1.865-.562,2.672-.816a4.458,4.458,0,0,0,2.437-1.911,6.135,6.135,0,0,0,.738-5.786l-2.258,2.938c2.675,1.008,5.731.322,7.026-2.412a8.828,8.828,0,0,0-.672-8.157c-1.4-2.272-3.936-3.663-6.08-5.145q-3.871-2.676-7.777-5.3c-2.142-1.44-4.146,2.023-2.019,3.454Z"/><path class="a" d="M78.293,184.14c-12.811-4.1-31.846-9.888-46.273-15.008L19.1,195.862c4.6,1.98,9.3,3.516,12.369,4.565,14.886,5.095,26.388,7.717,41.44,10.787,2.082-8.705,5.034-18.951,6.649-26.667Z"/><path class="b" d="M31.488,171.06c15.7,5.566,31.683,10.314,47.541,15.416l-1.4-2.461c-1.891,8.966-4.51,17.761-6.649,26.668l2.461-1.4a346.306,346.306,0,0,1-35.122-8.707c-4.6-1.452-9.19-2.984-13.711-4.664a61.951,61.951,0,0,1-12.4-5.878,17.575,17.575,0,0,1-7.534-10.6c-1.42-5.45-.408-10.839,1.57-16,3.161-8.243,6.212-16.527,9.369-24.771.814-2.123,1.632-4.244,2.47-6.358.682-1.722,1.3-3.265,1.912-4.648a31.283,31.283,0,0,1,3.556-6.127,26.5,26.5,0,0,1,4.679-4.839c1.992-1.633-.853-4.448-2.829-2.828a30.484,30.484,0,0,0-8.041,10.007c-1.679,3.4-3,6.994-4.369,10.524-3.372,8.695-6.6,17.446-9.911,26.163C1.149,165.652-.414,170.712.1,176.238c.489,5.281,2.541,10.779,6.48,14.47,3.417,3.2,7.795,5.305,12.063,7.114,4.029,1.708,8.161,3.123,12.3,4.534a336.326,336.326,0,0,0,41.44,10.787,2.036,2.036,0,0,0,2.46-1.4c2.139-8.907,4.758-17.7,6.649-26.667a2.051,2.051,0,0,0-1.4-2.461c-15.857-5.1-31.836-9.85-47.541-15.415-2.431-.861-3.477,3-1.063,3.857Z"/><path class="c" d="M68.994,181.636c-.605,2.838-6.235,23.43-7.049,26.728"/><path class="d" d="M108.968,51.218c-.581.393-.827.306-.85.059-.034-.362-.075-.732-.131-1.093a29.663,29.663,0,0,0-.71-3.188,37.657,37.657,0,0,0-3.8-8.4c-2.41-4.007-5.356-7.127-10.148-8.226l-6.62-.862A94.074,94.074,0,0,1,47.385,51.377a4.52,4.52,0,0,0-3.69-1.116,4.124,4.124,0,0,0-.777.192c-2.735-5.912-2.717-16.472-.772-23.759,1.888-7.074,6.322-13.939,12.606-16.808l5.634-3.853c7.332-4.9,21.033-4.649,26.633-2.649,5.343,1.908,10.186,5.534,12.131,9.485l4.333,3.833c4.72,2.591,7.05,7.075,8.571,10.961,2.21,5.649,2.825,15.122.551,22.594a4.554,4.554,0,0,0-3.618,1.069"/><path class="b" d="M100.877,11.859C98.039,6.311,91.55,2.252,85.594.9a42.231,42.231,0,0,0-17.1-.05,25.457,25.457,0,0,0-9.114,3.456c-2.146,1.4-.144,4.869,2.018,3.454,5.483-3.585,12.86-4.095,19.222-3.579,6.451.523,13.726,3.676,16.806,9.7,1.173,2.292,4.626.271,3.454-2.019Z"/><path class="b" d="M105.184,67.143a16.645,16.645,0,0,1-1,4.549c-.072.214-.146.428-.219.642-.012.034-.224.593-.084.246s-.093.2-.12.254c-.068.141-.135.282-.206.422a37.113,37.113,0,0,1-3.212,5.164c-2.844,3.909-6.665,8-11.447,9.387-2.467.715-1.418,4.576,1.064,3.857,5.764-1.672,10.215-6.31,13.676-11,2.929-3.974,5.339-8.469,5.546-13.516.106-2.574-3.894-2.569-4,0Z"/><path class="b" d="M46.706,67.348a34.7,34.7,0,0,0,6.766,15.383c3.657,4.582,8.74,8.464,14.651,9.388a2.063,2.063,0,0,0,2.46-1.4,2.016,2.016,0,0,0-1.4-2.46C58.631,86.612,52.38,75.95,50.563,66.285a2.017,2.017,0,0,0-2.46-1.4,2.043,2.043,0,0,0-1.4,2.46Z"/><path class="b" d="M110.4,52.74a2.458,2.458,0,0,1,3.59.584,5.784,5.784,0,0,1,.424,2.589A15.334,15.334,0,0,1,114.194,59a16.226,16.226,0,0,1-2.174,5.745c-.751,1.193-1.995,2.879-3.481,2.482-2.49-.664-3.552,3.194-1.064,3.857,3.289.877,5.863-1.246,7.656-3.8a19.376,19.376,0,0,0,3.144-8.729c.353-2.892.357-6.571-1.987-8.675a6.6,6.6,0,0,0-8.715.037,2.014,2.014,0,0,0,0,2.828,2.043,2.043,0,0,0,2.828,0Z"/><path class="b" d="M48.751,49.912a6.608,6.608,0,0,0-8.715-.037c-2.4,2.157-2.338,5.953-1.957,8.9a19.079,19.079,0,0,0,3.3,8.754c1.852,2.539,4.616,4.709,7.919,3.981,2.513-.554,1.449-4.411-1.063-3.858-1.483.327-3.044-1.575-3.758-2.65a15.98,15.98,0,0,1-2.312-5.842,15.241,15.241,0,0,1-.255-3.038,6.078,6.078,0,0,1,.428-2.8,2.457,2.457,0,0,1,3.589-.584,2.055,2.055,0,0,0,2.829,0,2.016,2.016,0,0,0,0-2.828Z"/><path class="b" d="M53.743,8.159C46.538,11.545,41.957,19.18,40.085,26.676a47.229,47.229,0,0,0-1.317,11.886,34.168,34.168,0,0,0,1.786,11.381c.882,2.4,4.75,1.359,3.857-1.064-2.371-6.434-2.126-14.2-.553-20.793,1.6-6.708,5.459-13.444,11.9-16.473,2.328-1.094.3-4.543-2.018-3.454Z"/><path class="b" d="M102.474,18.429c4.609,2.608,7.29,7.63,8.556,12.633a36.138,36.138,0,0,1-.206,18.161c-.686,2.485,3.172,3.545,3.857,1.063a40.208,40.208,0,0,0,.118-20.629c-1.563-5.866-4.911-11.629-10.306-14.682-2.244-1.269-4.262,2.185-2.019,3.454Z"/><path class="b" d="M92.8,32.3c4.625,1.114,7.469,4.565,9.681,8.573a31.16,31.16,0,0,1,3.006,7.18c.168.645.321,1.293.445,1.947.118.62.107,1.317.287,1.919.515,1.721,2.431,1.825,3.757,1.027,2.2-1.326.194-4.786-2.019-3.454.023.08-.029.1-.156.068h1.063l-.114-.029.882.515-.07-.073.514.882c-.269-.956-.388-2.522-.686-3.69a26.65,26.65,0,0,0-1.173-3.523,42.3,42.3,0,0,0-3.583-6.972c-2.577-3.976-6.076-7.1-10.77-8.227-2.5-.6-3.569,3.254-1.064,3.857Z"/><path class="b" d="M85.842,27.584A92.376,92.376,0,0,1,46.948,49.422c-2.477.69-1.425,4.55,1.063,3.858A96.649,96.649,0,0,0,88.67,30.413c1.869-1.778-.963-4.6-2.828-2.829Z"/><path class="b" d="M72.437,76.489a12.778,12.778,0,0,0,6.155,1.434,10.113,10.113,0,0,0,6.3-1.9,2,2,0,0,0,0-2.828,2.064,2.064,0,0,0-2.829,0c.686-.534-.068.016-.288.131-.171.09-.637.23-.024.031-.17.056-.335.129-.505.184-.215.069-.434.128-.654.179-.118.028-.7.06-.76.144.068-.095.392-.045-.012,0-.138.014-.277.025-.416.034-.335.022-.67.03-1,.028-.3,0-.6-.012-.9-.032-.137-.01-.275-.021-.412-.034l-.234-.026q-.234-.029.158.021a3.755,3.755,0,0,1-1.321-.294c-.185-.055-.365-.121-.547-.184-.463-.158.4.194-.019,0-.227-.106-.45-.218-.671-.335a2,2,0,1,0-2.019,3.454Z"/><path class="b" d="M77.365,62.262a27.791,27.791,0,0,1,.654,2.992l-.071-.531a1.84,1.84,0,0,1,.011.413l.071-.532a.934.934,0,0,1-.045.186l.2-.478a.86.86,0,0,1-.066.119l.313-.4a.636.636,0,0,1-.1.1l.405-.313a1.994,1.994,0,0,1-.237.126l.478-.2a1.748,1.748,0,0,1-.4.117l.532-.072a1.568,1.568,0,0,1-.375,0l.531.072c-.141-.02-.28-.054-.421-.073a1.516,1.516,0,0,0-.8-.036,1.486,1.486,0,0,0-.743.237,2,2,0,0,0-.718,2.737,1.915,1.915,0,0,0,1.2.919c.363.049.715.14,1.085.156a3.547,3.547,0,0,0,1.652-.4,2.487,2.487,0,0,0,1.347-1.627,3.881,3.881,0,0,0-.014-1.7c-.163-.964-.386-1.92-.634-2.865a2,2,0,0,0-2.46-1.4,2.017,2.017,0,0,0-1.2.919,2.1,2.1,0,0,0-.2,1.541Z"/><path class="b" d="M61.992,53.664c-.5,1.624-.174,5.359,2.9,5.677,4.067-.024,4.283-4.541,2.914-6.664C66.687,50.938,63.392,50.215,61.992,53.664Z"/><path class="b" d="M94.554,53.664c.5,1.624.174,5.359-2.9,5.677-4.067-.024-4.283-4.541-2.914-6.664C89.858,50.938,93.154,50.215,94.554,53.664Z"/></svg>